<svg version="1.1" id="Layer_1" xmlns="http://www.w3.org/2000/svg" xmlns:xlink="http://www.w3.org/1999/xlink" x="0px" y="0px"
	 width="100%" viewBox="0 0 284 160" enable-background="new 0 0 284 160" xml:space="preserve">
<path fill="#FFFFFF" opacity="1.000000" stroke="none" 
	d="
M142.000000,1.000001 
	C189.642990,1.000000 237.285965,1.000000 284.964478,1.000000 
	C284.964478,54.283142 284.964478,107.566315 284.964478,160.924744 
	C190.430588,160.924744 95.861084,160.924744 1.145795,160.924744 
	C1.145795,107.790710 1.145795,54.580891 1.145795,1.000000 
	C45.353539,1.000000 89.708107,1.000000 134.517731,1.128595 
	C134.972763,1.257189 134.987762,1.515381 134.699387,1.722749 
	C124.943588,11.761102 115.476158,21.592087 105.727173,31.553905 
	C100.213051,37.016972 94.959389,42.328758 89.758644,47.691864 
	C87.779549,49.732738 85.922005,51.891483 83.727325,54.186905 
	C81.962646,55.917187 80.479706,57.457077 78.712158,59.031670 
	C78.105415,59.372841 77.783272,59.679306 77.461121,59.985775 
	C77.670959,60.168213 77.880806,60.350655 78.090645,60.533092 
	C78.394753,60.023129 78.698868,59.513168 79.411911,59.002785 
	C81.426338,59.446278 83.031830,59.890194 84.532761,60.531761 
	C84.428192,60.729412 84.086121,61.017490 83.709824,61.011677 
	C82.389153,61.287964 81.444794,61.570065 80.500427,61.852169 
	C80.805801,62.309738 81.111176,62.767311 81.257965,63.527576 
	C79.325119,65.908882 77.550880,67.987495 75.459869,70.218933 
	C72.543678,71.483780 68.494644,70.836906 68.735512,75.871094 
	C65.615959,77.892578 68.008179,79.088661 69.089195,80.189636 
	C80.741089,92.056709 92.418221,103.899216 104.137215,115.700027 
	C106.642319,118.222618 109.343552,120.550438 111.954437,122.967979 
	C112.356232,122.578575 112.758034,122.189171 113.159836,121.799759 
	C111.942291,119.940041 110.724747,118.080322 109.848068,116.086044 
	C111.147438,115.254860 112.105934,114.558250 113.343903,114.044083 
	C115.157738,116.125977 116.692093,118.025429 117.896645,120.068336 
	C116.638107,122.044014 114.443733,124.660988 115.006416,125.568474 
	C117.101517,128.947464 119.791656,132.173279 122.936516,134.565033 
	C123.994217,135.369431 127.072151,133.517441 129.481110,133.043518 
	C130.490128,134.139130 131.244751,135.070816 132.093597,136.219009 
	C132.367798,136.706726 132.609238,136.901947 133.140472,137.155533 
	C133.562241,137.579346 133.755692,137.868820 134.075989,138.547379 
	C135.801620,139.403244 137.400421,139.870010 138.769440,140.604004 
	C140.019409,142.894073 141.499176,144.916946 143.105743,147.151688 
	C143.828583,146.931442 144.424622,146.499313 145.011902,146.036179 
	C145.003143,146.005173 145.065323,146.022079 145.276215,145.911407 
	C145.750000,145.599289 145.921814,145.337967 146.140167,144.712189 
	C156.576004,133.115143 166.943329,121.884087 177.096359,110.462547 
	C178.581802,108.791512 179.046753,106.213310 179.825821,103.790390 
	C178.786789,102.686684 177.905838,101.847458 177.187805,100.746338 
	C178.181015,99.869644 179.011307,99.254852 180.000031,99.015717 
	C181.434860,101.078377 180.942413,106.463440 184.695450,103.225166 
	C189.730316,98.880867 193.593628,93.162224 197.823090,87.923157 
	C198.320404,87.307129 197.954330,85.994087 198.166092,84.742798 
	C198.402237,83.589035 198.460785,82.696625 198.679932,81.495667 
	C199.748734,80.131248 200.656937,79.075394 201.864075,77.948929 
	C203.652374,77.649071 205.141739,77.419823 206.956940,77.140427 
	C206.956940,76.083450 206.956940,74.982826 207.088867,73.588974 
	C208.548279,72.300049 209.875778,71.304352 210.935547,70.509460 
	C204.572128,63.890499 198.838074,57.926167 192.999481,51.683517 
	C192.401245,51.116821 191.907516,50.828430 191.401520,50.506123 
	C191.389221,50.472202 191.408600,50.402702 191.279602,50.128754 
	C189.447998,48.222752 187.745392,46.590694 185.900818,44.656761 
	C177.826385,36.273434 169.893936,28.191984 161.944550,19.757977 
	C159.694595,15.762520 157.035019,12.626236 152.677292,10.772157 
	C152.677292,13.783118 152.677292,15.992097 152.329407,18.280678 
	C150.649063,17.193853 149.316589,16.027426 147.871658,14.671632 
	C147.565094,14.248763 147.322433,14.088992 146.963654,13.835230 
	C146.896103,13.667510 146.858963,13.307785 146.874725,12.960604 
	C146.282593,12.073771 145.674667,11.534122 144.840088,10.711362 
	C143.141968,10.957405 141.541901,11.275246 140.233154,12.071743 
	C138.755447,12.971066 137.539642,14.300721 136.074402,15.111698 
	C135.639832,13.908725 135.340820,13.037277 135.181473,11.925326 
	C135.795807,11.420270 136.270462,11.155717 137.100128,10.888101 
	C137.950745,10.211256 138.446396,9.537475 139.059082,8.600145 
	C139.579742,7.934671 139.983322,7.532747 140.562469,7.439356 
	C141.480881,7.190958 142.849380,6.634317 142.849640,6.077046 
	C142.850433,4.384829 142.322189,2.692368 142.000000,1.000001 
z"/>
<path fill="#FAF9F5" opacity="1.000000" stroke="none" 
	d="
M141.562500,1.000001 
	C142.322189,2.692368 142.850433,4.384829 142.849640,6.077046 
	C142.849380,6.634317 141.480881,7.190958 140.437546,7.236357 
	C138.420639,4.988343 136.704193,3.251863 134.987762,1.515382 
	C134.987762,1.515381 134.972763,1.257189 134.986389,1.128595 
	C137.041672,1.000000 139.083328,1.000000 141.562500,1.000001 
z"/>
<path fill="#C9B594" opacity="1.000000" stroke="none" 
	d="
M131.999390,136.002502 
	C131.244751,135.070816 130.490128,134.139130 129.376862,132.717712 
	C125.420959,128.126938 121.823708,124.025909 118.226448,119.924881 
	C116.692093,118.025429 115.157738,116.125977 113.272133,113.719398 
	C100.539467,98.830215 88.158058,84.448166 75.776642,70.066109 
	C77.550880,67.987495 79.325119,65.908882 81.530746,63.428810 
	C82.670128,62.357399 83.378120,61.687443 84.086121,61.017487 
	C84.086121,61.017490 84.428192,60.729412 84.827118,60.448700 
	C94.632439,52.101284 104.102936,44.107803 113.425247,35.945080 
	C121.111221,29.215139 128.621704,22.284773 136.209946,15.443226 
	C137.539642,14.300721 138.755447,12.971066 140.233154,12.071743 
	C141.541901,11.275246 143.141968,10.957405 144.846283,11.028564 
	C145.672409,12.188513 146.265686,12.748148 146.858963,13.307784 
	C146.858963,13.307785 146.896103,13.667510 147.023071,14.070219 
	C147.342819,14.785466 147.620850,14.914824 147.984116,14.861000 
	C149.316589,16.027426 150.649063,17.193853 152.366074,18.276134 
	C152.750610,18.191990 152.816055,18.158903 152.718140,18.507429 
	C153.108948,19.895567 153.597672,20.935179 154.208923,22.283474 
	C158.540970,27.524611 162.754013,32.454063 166.959335,37.390095 
	C178.496338,50.931763 190.030106,64.476189 201.565140,78.019531 
	C200.656937,79.075394 199.748734,80.131248 198.444199,81.633087 
	C197.346146,82.684723 196.644424,83.290382 195.648621,84.058899 
	C190.183548,89.027863 185.012573,93.833961 179.841599,98.640060 
	C179.011307,99.254852 178.181015,99.869644 176.892273,100.899712 
	C164.204865,112.415688 152.007843,123.551979 139.709274,134.574997 
	C138.050888,136.061371 135.881760,136.977905 133.949127,138.158295 
	C133.755692,137.868820 133.562241,137.579346 133.072678,136.922150 
	C132.592667,136.264633 132.333618,136.080658 131.999390,136.002502 
M125.941330,72.186989 
	C128.434311,70.880074 131.123779,69.845871 133.384613,68.216774 
	C141.177841,62.601151 149.182449,57.191338 156.397827,50.891411 
	C161.391144,46.531601 159.993103,40.924114 153.734131,39.062717 
	C148.696365,37.564507 143.250488,37.438610 137.985687,36.703827 
	C137.897705,37.143375 137.809708,37.582920 137.721725,38.022465 
	C138.697678,38.454666 139.667786,38.900650 140.650528,39.316841 
	C147.596054,42.258297 149.008682,46.741585 144.792984,53.137516 
	C143.524689,55.061741 141.896057,56.813847 140.179596,58.364956 
	C135.132889,62.925488 129.959244,67.345535 124.328270,71.932205 
	C124.119713,72.186592 123.911156,72.440979 123.702591,72.695358 
	C124.207184,72.547592 124.711777,72.399834 125.941330,72.186989 
M112.082397,82.931221 
	C111.634087,85.988441 110.787445,89.050819 110.826996,92.101715 
	C110.893066,97.198631 111.525528,102.288216 112.378281,107.924911 
	C120.548714,111.549583 129.183640,111.835258 137.825241,110.938812 
	C154.319809,109.227707 164.002625,100.265312 166.180054,85.217384 
	C167.071960,79.053535 163.194107,72.908432 157.830856,72.548035 
	C158.622437,73.980881 159.339417,75.229195 160.010361,76.501785 
	C162.876205,81.937454 162.164139,86.370125 157.758774,90.629227 
	C149.051132,99.047775 135.013184,101.361984 124.855049,95.842468 
	C123.929070,95.339325 123.354675,93.501152 123.282631,92.244759 
	C123.075378,88.630707 123.209503,84.997078 123.209503,80.066002 
	C119.295181,81.114960 116.130165,81.963127 112.082397,82.931221 
M113.297119,73.565529 
	C113.940102,73.752388 114.820091,74.301468 115.184708,74.062889 
	C116.699051,73.072044 118.253937,72.016495 119.439713,70.672226 
	C124.439499,65.004189 129.848709,59.586700 134.054260,53.365173 
	C137.174820,48.748768 134.997910,40.902500 127.890060,41.411133 
	C126.486877,46.942822 125.903282,52.398705 123.704231,57.098759 
	C121.069054,62.730984 117.055244,67.718185 113.297119,73.565529 
z"/>
<path fill="#FAF9F4" opacity="1.000000" stroke="none" 
	d="
M201.864075,77.948929 
	C190.030106,64.476189 178.496338,50.931763 166.959335,37.390095 
	C162.754013,32.454063 158.540970,27.524611 154.553284,22.251278 
	C155.801422,21.306080 156.827713,20.701761 157.854004,20.097441 
	C157.795959,19.684536 157.737915,19.271629 157.679871,18.858725 
	C156.058609,18.625450 154.437332,18.392176 152.816055,18.158903 
	C152.816055,18.158903 152.750610,18.191990 152.713959,18.196533 
	C152.677292,15.992097 152.677292,13.783118 152.677292,10.772157 
	C157.035019,12.626236 159.694595,15.762520 161.678101,19.731270 
	C160.935455,20.013388 160.442627,19.948715 159.948929,19.941065 
	C159.829803,19.939217 159.707764,20.126078 159.503082,20.295795 
	C159.863541,20.819275 160.187607,21.386377 160.601898,21.877316 
	C168.612930,31.370234 176.634491,40.854240 184.793457,50.625137 
	C185.929855,52.008133 186.926682,53.106071 188.038910,54.513779 
	C192.818481,60.414715 197.383713,66.093948 202.222656,71.529526 
	C203.309845,72.750771 205.353561,73.120476 206.956940,73.882187 
	C206.956940,74.982826 206.956940,76.083450 206.956940,77.140427 
	C205.141739,77.419823 203.652374,77.649071 201.864075,77.948929 
z"/>
<path fill="#A38346" opacity="1.000000" stroke="none" 
	d="
M109.507202,116.220604 
	C110.724747,118.080322 111.942291,119.940041 113.159836,121.799759 
	C112.758034,122.189171 112.356232,122.578575 111.954437,122.967979 
	C109.343552,120.550438 106.642319,118.222618 104.137215,115.700027 
	C92.418221,103.899216 80.741089,92.056709 69.089195,80.189636 
	C68.008179,79.088661 65.615959,77.892578 69.057587,75.897629 
	C70.551239,74.850677 71.596481,74.099792 72.972992,73.110916 
	C78.703751,79.832596 84.266869,86.324539 89.792961,92.847855 
	C96.380959,100.624725 102.937202,108.428490 109.507202,116.220604 
z"/>
<path fill="#A28244" opacity="1.000000" stroke="none" 
	d="
M179.983887,104.054863 
	C179.046753,106.213310 178.581802,108.791512 177.096359,110.462547 
	C166.943329,121.884087 156.576004,133.115143 145.904877,144.790436 
	C145.251373,145.387451 145.095825,145.670395 145.065323,146.022079 
	C145.065323,146.022079 145.003143,146.005173 144.716812,146.077591 
	C143.946625,146.413284 143.462784,146.676544 142.978928,146.939819 
	C141.499176,144.916946 140.019409,142.894073 139.035522,140.487396 
	C147.692078,132.614914 155.790192,125.056404 164.036255,117.662956 
	C169.237717,112.999306 174.660431,108.582436 179.983887,104.054863 
z"/>
<path fill="#F9F8F2" opacity="1.000000" stroke="none" 
	d="
M136.074402,15.111698 
	C128.621704,22.284773 121.111221,29.215139 113.425247,35.945080 
	C104.102936,44.107803 94.632439,52.101284 84.931686,60.251053 
	C83.031830,59.890194 81.426338,59.446278 79.410423,59.001183 
	C79.000000,59.000000 78.996758,58.996964 78.996758,58.996964 
	C80.479706,57.457077 81.962646,55.917187 84.087456,54.205696 
	C93.153183,47.024117 101.577042,40.014137 110.313019,32.881195 
	C118.764038,25.894093 126.902924,19.029961 135.041809,12.165829 
	C135.340820,13.037277 135.639832,13.908725 136.074402,15.111698 
z"/>
<path fill="#F8F6F0" opacity="1.000000" stroke="none" 
	d="
M109.848068,116.086044 
	C102.937202,108.428490 96.380959,100.624725 89.792961,92.847855 
	C84.266869,86.324539 78.703751,79.832596 72.972992,73.110916 
	C71.596481,74.099792 70.551239,74.850677 69.183929,75.575027 
	C68.494644,70.836906 72.543678,71.483780 75.459869,70.218933 
	C88.158058,84.448166 100.539467,98.830215 112.992661,113.536957 
	C112.105934,114.558250 111.147438,115.254860 109.848068,116.086044 
z"/>
<path fill="#A28246" opacity="1.000000" stroke="none" 
	d="
M135.181473,11.925325 
	C126.902924,19.029961 118.764038,25.894093 110.142807,32.639900 
	C108.443222,32.155403 107.225975,31.789236 106.008728,31.423069 
	C115.476158,21.592087 124.943588,11.761102 134.699387,1.722749 
	C136.704193,3.251863 138.420639,4.988343 140.261993,6.927823 
	C139.983322,7.532747 139.579742,7.934671 138.780045,8.723979 
	C137.837677,9.704629 137.291397,10.297895 136.745132,10.891163 
	C136.270462,11.155717 135.795807,11.420270 135.181473,11.925325 
z"/>
<path fill="#F7F5EF" opacity="1.000000" stroke="none" 
	d="
M179.825821,103.790390 
	C174.660431,108.582436 169.237717,112.999306 164.036255,117.662956 
	C155.790192,125.056404 147.692078,132.614914 139.265289,140.220184 
	C137.400421,139.870010 135.801620,139.403244 134.075989,138.547379 
	C135.881760,136.977905 138.050888,136.061371 139.709274,134.574997 
	C152.007843,123.551979 164.204865,112.415688 176.729340,101.161606 
	C177.905838,101.847458 178.786789,102.686684 179.825821,103.790390 
z"/>
<path fill="#A28245" opacity="1.000000" stroke="none" 
	d="
M207.088867,73.588966 
	C205.353561,73.120476 203.309845,72.750771 202.222656,71.529526 
	C197.383713,66.093948 192.818481,60.414715 188.069397,54.102036 
	C189.125839,52.387917 190.267227,51.395309 191.408600,50.402702 
	C191.408600,50.402702 191.389221,50.472202 191.388596,50.842712 
	C191.959976,51.462761 192.531998,51.712303 193.104004,51.961838 
	C198.838074,57.926167 204.572128,63.890499 210.935547,70.509460 
	C209.875778,71.304352 208.548279,72.300049 207.088867,73.588966 
z"/>
<path fill="#F7F5EF" opacity="1.000000" stroke="none" 
	d="
M180.000031,99.015717 
	C185.012573,93.833961 190.183548,89.027863 195.815674,84.321266 
	C196.847366,84.615234 197.417938,84.809692 197.988495,85.004158 
	C197.954330,85.994087 198.320404,87.307129 197.823090,87.923157 
	C193.593628,93.162224 189.730316,98.880867 184.695450,103.225166 
	C180.942413,106.463440 181.434860,101.078377 180.000031,99.015717 
z"/>
<path fill="#A18344" opacity="1.000000" stroke="none" 
	d="
M184.653885,50.340080 
	C176.634491,40.854240 168.612930,31.370234 160.601898,21.877316 
	C160.187607,21.386377 159.863541,20.819275 159.503082,20.295795 
	C159.707764,20.126078 159.829803,19.939217 159.948929,19.941065 
	C160.442627,19.948715 160.935455,20.013388 161.695038,20.083828 
	C169.893936,28.191984 177.826385,36.273434 185.866974,44.692322 
	C185.975098,45.029758 185.908081,45.101501 185.574158,45.128326 
	C185.163956,46.765850 185.087692,48.376545 184.922577,50.076004 
	C184.833740,50.164768 184.653885,50.340084 184.653885,50.340080 
M181.411880,42.482967 
	C181.411880,42.482967 181.522964,42.416668 181.411880,42.482967 
z"/>
<path fill="#F8F6F0" opacity="1.000000" stroke="none" 
	d="
M117.896645,120.068336 
	C121.823708,124.025909 125.420959,128.126938 129.122467,132.553772 
	C127.072151,133.517441 123.994217,135.369431 122.936516,134.565033 
	C119.791656,132.173279 117.101517,128.947464 115.006416,125.568474 
	C114.443733,124.660988 116.638107,122.044014 117.896645,120.068336 
z"/>
<path fill="#A18140" opacity="1.000000" stroke="none" 
	d="
M105.727173,31.553905 
	C107.225975,31.789236 108.443222,32.155403 109.830681,32.762867 
	C101.577042,40.014137 93.153183,47.024117 84.369194,54.015301 
	C85.922005,51.891483 87.779549,49.732738 89.758644,47.691864 
	C94.959389,42.328758 100.213051,37.016972 105.727173,31.553905 
z"/>
<path fill="#A18344" opacity="1.000000" stroke="none" 
	d="
M191.279602,50.128757 
	C190.267227,51.395309 189.125839,52.387917 187.953979,53.792267 
	C186.926682,53.106071 185.929855,52.008133 184.793457,50.625137 
	C184.653885,50.340084 184.833740,50.164768 185.248657,50.030910 
	C185.745087,48.298534 185.826584,46.700020 185.908081,45.101501 
	C185.908081,45.101501 185.975098,45.029758 186.008942,44.994198 
	C187.745392,46.590694 189.447998,48.222752 191.279602,50.128757 
z"/>
<path fill="#FAF9F4" opacity="1.000000" stroke="none" 
	d="
M198.166092,84.742798 
	C197.417938,84.809692 196.847366,84.615234 196.109756,84.158409 
	C196.644424,83.290382 197.346146,82.684723 198.283600,81.941643 
	C198.460785,82.696625 198.402237,83.589035 198.166092,84.742798 
z"/>
<path fill="#F9F8F2" opacity="1.000000" stroke="none" 
	d="
M83.709816,61.011673 
	C83.378120,61.687443 82.670128,62.357399 81.689346,63.126122 
	C81.111176,62.767311 80.805801,62.309738 80.500427,61.852169 
	C81.444794,61.570065 82.389153,61.287964 83.709816,61.011673 
z"/>
<path fill="#F9F8F2" opacity="1.000000" stroke="none" 
	d="
M79.001488,59.001602 
	C78.698868,59.513168 78.394753,60.023129 78.090645,60.533092 
	C77.880806,60.350655 77.670959,60.168213 77.461121,59.985775 
	C77.783272,59.679306 78.105415,59.372841 78.712158,59.031670 
	C78.996758,58.996964 79.000000,59.000000 79.001488,59.001602 
z"/>
<path fill="#FAF9F4" opacity="1.000000" stroke="none" 
	d="
M146.874725,12.960602 
	C146.265686,12.748148 145.672409,12.188513 145.072937,11.311675 
	C145.674667,11.534122 146.282593,12.073771 146.874725,12.960602 
z"/>
<path fill="#F9F8F2" opacity="1.000000" stroke="none" 
	d="
M137.100128,10.888100 
	C137.291397,10.297895 137.837677,9.704629 138.662994,8.987528 
	C138.446396,9.537475 137.950745,10.211256 137.100128,10.888100 
z"/>
<path fill="#F7F5EF" opacity="1.000000" stroke="none" 
	d="
M143.105743,147.151688 
	C143.462784,146.676544 143.946625,146.413284 144.725555,146.108597 
	C144.424622,146.499313 143.828583,146.931442 143.105743,147.151688 
z"/>
<path fill="#A18344" opacity="1.000000" stroke="none" 
	d="
M192.999481,51.683525 
	C192.531998,51.712303 191.959976,51.462761 191.400879,50.876633 
	C191.907516,50.828430 192.401245,51.116821 192.999481,51.683525 
z"/>
<path fill="#FAF9F4" opacity="1.000000" stroke="none" 
	d="
M147.871658,14.671633 
	C147.620850,14.914824 147.342819,14.785466 147.090622,14.237940 
	C147.322433,14.088992 147.565094,14.248763 147.871658,14.671633 
z"/>
<path fill="#F7F5EF" opacity="1.000000" stroke="none" 
	d="
M132.093597,136.219009 
	C132.333618,136.080658 132.592667,136.264633 132.844330,136.787811 
	C132.609238,136.901947 132.367798,136.706726 132.093597,136.219009 
z"/>
<path fill="#F7F5EF" opacity="1.000000" stroke="none" 
	d="
M145.276215,145.911407 
	C145.095825,145.670395 145.251373,145.387451 145.767273,145.095016 
	C145.921814,145.337967 145.750000,145.599289 145.276215,145.911407 
z"/>
<path fill="#252122" opacity="1.000000" stroke="none" 
	d="
M112.965149,82.811295 
	C116.130165,81.963127 119.295181,81.114960 123.209503,80.066002 
	C123.209503,84.997078 123.075378,88.630707 123.282631,92.244759 
	C123.354675,93.501152 123.929070,95.339325 124.855049,95.842468 
	C135.013184,101.361984 149.051132,99.047775 157.758774,90.629227 
	C162.164139,86.370125 162.876205,81.937454 160.010361,76.501785 
	C159.339417,75.229195 158.622437,73.980881 157.830856,72.548035 
	C163.194107,72.908432 167.071960,79.053535 166.180054,85.217384 
	C164.002625,100.265312 154.319809,109.227707 137.825241,110.938812 
	C129.183640,111.835258 120.548714,111.549583 112.175751,107.157654 
	C112.303864,98.530693 112.634506,90.670998 112.965149,82.811295 
z"/>
<path fill="#A18145" opacity="1.000000" stroke="none" 
	d="
M124.835297,71.820587 
	C129.959244,67.345535 135.132889,62.925488 140.179596,58.364956 
	C141.896057,56.813847 143.524689,55.061741 144.792984,53.137516 
	C149.008682,46.741585 147.596054,42.258297 140.650528,39.316841 
	C139.667786,38.900650 138.697678,38.454666 137.721725,38.022465 
	C137.809708,37.582920 137.897705,37.143375 137.985687,36.703827 
	C143.250488,37.438610 148.696365,37.564507 153.734131,39.062717 
	C159.993103,40.924114 161.391144,46.531601 156.397827,50.891411 
	C149.182449,57.191338 141.177841,62.601151 133.384613,68.216774 
	C131.123779,69.845871 128.434311,70.880074 125.484146,72.111160 
	C125.026955,72.035339 124.835297,71.820587 124.835297,71.820587 
z"/>
<path fill="#A18145" opacity="1.000000" stroke="none" 
	d="
M113.467789,73.275124 
	C117.055244,67.718185 121.069054,62.730984 123.704231,57.098759 
	C125.903282,52.398705 126.486877,46.942822 127.890060,41.411133 
	C134.997910,40.902500 137.174820,48.748768 134.054260,53.365173 
	C129.848709,59.586700 124.439499,65.004189 119.439713,70.672226 
	C118.253937,72.016495 116.699051,73.072044 115.184708,74.062889 
	C114.820091,74.301468 113.940102,73.752388 113.467789,73.275124 
z"/>
<path fill="#05020A" opacity="1.000000" stroke="none" 
	d="
M112.523773,82.871262 
	C112.634506,90.670998 112.303864,98.530693 111.946396,106.885635 
	C111.525528,102.288216 110.893066,97.198631 110.826996,92.101715 
	C110.787445,89.050819 111.634087,85.988441 112.523773,82.871262 
z"/>
<path fill="#FFFFFF" opacity="1.000000" stroke="none" 
	d="
M152.718140,18.507429 
	C154.437332,18.392176 156.058609,18.625450 157.679871,18.858725 
	C157.737915,19.271629 157.795959,19.684536 157.854004,20.097441 
	C156.827713,20.701761 155.801422,21.306080 154.430756,21.942595 
	C153.597672,20.935179 153.108948,19.895567 152.718140,18.507429 
z"/>
<path fill="#A18145" opacity="1.000000" stroke="none" 
	d="
M125.121658,72.143707 
	C124.711777,72.399834 124.207184,72.547592 123.702591,72.695358 
	C123.911156,72.440979 124.119713,72.186592 124.581787,71.876396 
	C124.835297,71.820587 125.026955,72.035339 125.121658,72.143707 
z"/>
<path fill="#A28245" opacity="1.000000" stroke="none" 
	d="
M185.574158,45.128326 
	C185.826584,46.700020 185.745087,48.298534 185.337509,49.942146 
	C185.087692,48.376545 185.163956,46.765850 185.574158,45.128326 
z"/>
<path fill="#A28245" opacity="1.000000" stroke="none" 
	d="
M181.467422,42.449818 
	C181.522964,42.416668 181.411880,42.482967 181.467422,42.449818 
z"/>
</svg>